<svg height="512pt" viewBox="-35 0 512 512.00076" width="512pt" xmlns="http://www.w3.org/2000/svg"><path d="m64.410156 65c-86.964844 86.953125-85.324218 228.613281 1.632813 315.570312l114.542969 114.542969c22.515624 22.515625 59.019531 22.515625 81.539062 0l114.539062-114.539062c86.957032-86.960938 88.597657-228.621094 1.632813-315.574219-86.679687-86.667969-227.203125-86.667969-313.886719 0zm0 0" fill="#ff938a"/><path d="m184.167969 3.117188c-43.851563 7.417968-85.910157 28.050781-119.757813 61.890624-86.964844 86.949219-85.324218 228.613282 1.632813 315.570313l114.542969 114.542969c15.375 15.375 37.269531 20.242187 56.78125 14.621094-7.007813-10.035157-12.039063-20.691407-15.632813-30.917969-8.589844-24.429688 3.210937-51.386719 27.09375-61.386719 52.484375-21.972656 69.691406-75.558594 69.890625-75.714844-255.34375-134.792968-134.574219-338.566406-134.550781-338.605468zm0 0" fill="#fb695b"/><path d="m375.675781 221.96875c0 85.230469-69.089843 154.324219-154.320312 154.324219s-154.324219-69.09375-154.324219-154.324219 69.09375-154.320312 154.324219-154.320312 154.320312 69.089843 154.320312 154.320312zm0 0" fill="#fcf5af"/><path d="m212.820312 136.660156c-4.269531 0-7.726562 3.457032-7.726562 7.726563v33.160156c0 8.8125-5.480469 16.351563-13.203125 19.433594v-52.59375c0-4.269531-3.460937-7.726563-7.726563-7.726563-4.269531 0-7.726562 3.457032-7.726562 7.726563v52.59375c-7.722656-3.082031-13.203125-10.621094-13.203125-19.433594v-33.160156c0-4.269531-3.457031-7.726563-7.726563-7.726563-4.269531 0-7.726562 3.457032-7.726562 7.726563v33.160156c0 17.410156 12.296875 31.996094 28.65625 35.550781v27.136719h15.453125v-27.136719c16.359375-3.554687 28.652344-18.140625 28.652344-35.550781v-33.160156c0-4.269531-3.457031-7.726563-7.722657-7.726563zm0 0" fill="#a5b1bd"/><path d="m184.164062 309.597656c-15.828124 0-28.65625-12.832031-28.65625-28.65625v-27.222656c0-9.675781 7.84375-17.523438 17.519532-17.523438h22.269531c9.679687 0 17.523437 7.84375 17.523437 17.523438v27.222656c0 15.824219-12.832031 28.65625-28.65625 28.65625zm0 0" fill="#2eddda"/><path d="m294.929688 252.707031v-105.84375c0-11.859375-15.011719-17.0625-22.304688-7.710937-9.863281 12.644531-19.835938 31.78125-22.5 59.039062-.710938 7.304688 1.460938 14.597656 6.144531 20.246094 4.664063 5.628906 10.003907 16.050781 10.003907 34.269531 0 1.292969 28.65625 0 28.65625 0zm0 0" fill="#a5b1bd"/><path d="m269.652344 309.597656c-13.957032 0-25.273438-11.316406-25.273438-25.277344v-32.671874c0-8.535157 6.917969-15.453126 15.453125-15.453126h35.097657v48.125c0 13.960938-11.316407 25.277344-25.277344 25.277344zm0 0" fill="#2eddda"/></svg>